<?xml version="1.0" standalone="no"?>
<!DOCTYPE svg PUBLIC "-//W3C//DTD SVG 20010904//EN"
 "http://www.w3.org/TR/2001/REC-SVG-20010904/DTD/svg10.dtd">
<svg version="1.0" xmlns="http://www.w3.org/2000/svg"
 width="675.000000pt" height="675.000000pt" viewBox="0 0 675.000000 675.000000"
 preserveAspectRatio="xMidYMid meet">

<g transform="translate(0.000000,675.000000) scale(0.100000,-0.100000)"
fill="#000000" stroke="none">
<path d="M6259 6728 c0 -13 -2 -41 -4 -63 -3 -22 -9 -287 -15 -590 -10 -520
-13 -601 -26 -770 -3 -38 -7 -113 -8 -165 -2 -52 -6 -176 -9 -275 -3 -99 -7
-214 -8 -255 -1 -41 -5 -196 -10 -345 -14 -446 -19 -610 -24 -825 -3 -113 -10
-225 -15 -250 -5 -25 -12 -133 -15 -240 -3 -107 -7 -242 -10 -300 -2 -58 -7
-193 -10 -300 -4 -107 -8 -226 -10 -265 -2 -38 -6 -169 -10 -290 -4 -121 -10
-287 -14 -370 -4 -82 -4 -162 0 -177 5 -17 4 -28 -2 -28 -6 0 -7 -4 -4 -10 8
-13 2 -13 -30 2 -26 11 -33 32 -15 43 15 9 12 38 -3 32 -8 -3 -20 -1 -28 4
-11 7 -11 9 0 9 8 0 11 6 7 16 -3 8 -2 12 4 9 6 -3 10 -2 10 4 0 5 -5 13 -10
16 -12 8 -3 46 14 58 8 6 8 10 -1 14 -22 8 -15 43 7 43 17 0 19 2 8 14 -8 9
-17 11 -22 5 -13 -12 -36 -12 -36 1 0 6 7 10 15 10 8 0 15 5 15 10 0 6 -4 10
-10 10 -5 0 -10 6 -10 13 0 8 -19 35 -43 62 -39 42 -46 46 -65 36 -26 -14 -55
-14 -47 -1 3 6 15 10 27 10 11 0 31 9 45 20 14 11 21 20 14 20 -26 0 -8 18 23
24 32 6 72 36 48 36 -6 0 -12 -4 -14 -9 -5 -15 -83 -18 -81 -3 2 6 -4 12 -13
12 -9 0 -27 10 -39 22 -22 21 -22 24 -8 40 14 16 14 18 -1 24 -9 3 -16 15 -16
26 0 14 -5 18 -15 14 -9 -3 -24 0 -35 6 -18 12 -18 13 2 40 24 34 30 109 9
116 -8 2 -11 0 -7 -6 7 -12 -37 -42 -64 -42 -11 0 -20 6 -20 13 0 6 -5 4 -11
-5 -12 -22 -49 -24 -49 -3 0 8 -6 15 -14 15 -7 0 -16 9 -19 21 -3 12 -10 18
-16 14 -6 -3 -14 1 -17 9 -8 21 -24 21 -24 0 0 -8 -5 -12 -10 -9 -6 4 -7 11
-4 17 4 6 0 14 -7 19 -12 8 -12 10 0 18 7 5 10 14 6 20 -4 7 4 20 17 31 29 22
65 86 55 97 -4 4 -21 2 -37 -4 -19 -7 -30 -7 -32 -1 -3 7 -19 6 -46 -3 -51
-15 -62 -7 -41 29 12 21 22 27 47 26 35 -2 44 15 13 23 -12 3 -17 11 -14 20 4
11 1 14 -13 11 -10 -2 -18 -9 -17 -16 4 -15 -25 -4 -59 24 -24 19 -25 24 -13
40 17 22 20 54 5 54 -5 0 -10 -8 -10 -17 0 -15 -2 -16 -10 -3 -15 23 -12 60 4
60 19 0 28 15 30 52 2 23 -3 32 -21 39 -14 5 -23 17 -23 29 0 23 -7 24 -45 10
-26 -10 -26 -10 -22 35 3 39 1 45 -15 45 -13 0 -20 -10 -24 -30 -7 -30 -18
-38 -29 -20 -4 6 -11 8 -16 5 -5 -4 -9 1 -9 10 0 9 5 13 10 10 6 -4 10 5 10
19 0 28 9 33 27 15 8 -8 13 -8 17 0 4 6 16 11 27 11 23 0 25 13 4 30 -13 11
-13 16 2 40 18 31 62 48 73 30 4 -6 15 -8 28 -3 16 6 19 12 12 23 -7 10 -10
11 -10 3 0 -7 -5 -13 -11 -13 -7 0 -10 12 -7 30 5 32 4 33 -27 20 -19 -7 -19
-8 -2 -15 17 -7 17 -8 -1 -21 -11 -7 -33 -12 -51 -9 -30 3 -57 -15 -33 -23 7
-2 12 -11 12 -19 0 -11 -4 -13 -12 -6 -23 18 -71 25 -79 11 -4 -7 -11 -9 -16
-5 -4 5 -1 12 6 16 7 5 11 13 8 17 -2 5 -1 19 4 32 9 25 49 31 49 7 0 -8 -4
-15 -10 -15 -5 0 -10 -4 -10 -9 0 -5 11 -4 25 2 14 7 25 15 25 20 0 4 8 7 18
7 15 1 15 2 -2 15 -19 14 -18 15 16 15 20 0 43 3 52 6 20 8 43 87 27 92 -6 2
-11 10 -11 18 0 9 -5 12 -10 9 -6 -4 -8 -11 -4 -16 7 -12 -14 -39 -30 -39 -6
0 -17 9 -24 21 -12 19 -11 20 10 14 20 -5 20 -4 6 5 -10 6 -18 15 -18 21 0 5
8 9 18 7 12 -2 18 5 20 25 3 24 32 41 32 18 0 -5 11 -12 25 -15 14 -4 25 -11
25 -16 0 -6 7 -10 15 -10 26 0 17 39 -10 46 -25 6 -25 7 -7 20 10 7 43 15 71
17 47 4 52 2 48 -14 -3 -11 -4 -19 -2 -19 2 0 24 20 49 45 26 25 42 45 36 45
-5 0 -10 5 -10 10 0 12 10 13 29 1 10 -7 11 -13 1 -31 -9 -18 -9 -25 6 -41 13
-14 20 -16 31 -8 17 15 17 29 -2 29 -27 0 -16 20 13 21 15 1 20 3 10 6 -9 2
-21 17 -27 34 -5 16 -14 29 -20 29 -5 0 -17 3 -27 7 -13 5 -16 3 -11 -10 7
-19 -8 -23 -19 -6 -3 6 -1 14 5 18 6 4 9 15 5 24 -7 20 18 23 38 5 65 -61 122
-70 116 -20 -2 20 -11 29 -35 36 -26 7 -32 14 -31 32 2 16 9 24 20 24 17 0 23
20 19 56 -1 7 10 14 24 16 13 3 22 2 20 -3 -3 -4 -1 -10 4 -14 6 -3 8 -12 4
-20 -4 -11 2 -15 21 -15 14 0 31 -8 37 -19 7 -11 19 -16 30 -14 11 3 16 9 14
14 -3 4 -13 6 -23 3 -14 -5 -15 -4 -2 5 13 10 13 12 0 20 -8 5 -33 23 -54 40
-22 17 -51 34 -65 38 -14 3 -33 11 -41 18 -8 7 -31 20 -50 30 -18 10 -40 24
-48 31 -7 8 -20 14 -27 14 -8 0 -19 8 -24 19 -6 10 -25 24 -43 32 -18 7 -39
21 -46 31 -7 10 -18 18 -23 18 -5 0 -35 16 -65 35 -30 19 -58 35 -62 35 -4 0
-18 9 -32 20 -36 28 -51 25 -104 -25 -38 -35 -52 -43 -62 -34 -22 18 -17 26
41 59 66 38 66 39 -43 102 -151 89 -173 100 -177 96 -5 -4 -29 -150 -41 -243
-3 -22 -8 -47 -11 -55 -11 -27 -17 -51 -37 -143 -25 -117 -94 -187 -197 -202
-51 -8 -79 9 -79 47 0 24 -12 17 -17 -10 -12 -64 -11 -91 3 -96 8 -3 13 -2 10
3 -3 4 1 17 9 27 9 12 14 14 15 6 0 -7 5 -10 10 -7 16 10 11 -27 -6 -46 -12
-13 -13 -22 -5 -38 15 -26 14 -31 -5 -31 -10 0 -14 -6 -10 -15 3 -8 1 -15 -4
-15 -5 0 -10 -8 -13 -17 -2 -10 -3 12 -2 50 3 79 -10 98 -20 29 -3 -26 -9 -60
-12 -77 -3 -16 -5 -37 -5 -45 1 -15 -10 -94 -30 -210 -11 -64 -51 -196 -71
-235 -13 -24 -10 -350 4 -448 20 -146 64 -297 86 -297 9 0 12 -7 9 -17 -5 -19
66 -108 77 -96 4 3 -10 21 -29 40 -20 19 -34 36 -32 38 3 3 41 -17 86 -44 45
-27 130 -69 189 -94 169 -71 271 -124 283 -147 17 -32 13 -137 -9 -222 -28
-107 -79 -226 -103 -239 -14 -8 -17 -13 -9 -18 9 -6 8 -14 -1 -32 -26 -49 -30
-52 -39 -38 -5 8 -7 2 -7 -18 1 -23 -13 -50 -55 -105 -178 -236 -511 -484
-809 -604 -235 -94 -461 -129 -657 -99 -131 19 -176 30 -271 68 -241 95 -419
203 -578 352 -29 28 -57 59 -63 70 -6 11 6 3 25 -17 20 -21 40 -37 45 -35 5 1
16 -7 24 -18 9 -11 19 -16 24 -12 12 13 -106 120 -124 113 -13 -5 -14 -4 -4 8
10 11 8 16 -7 20 -10 4 -24 18 -31 32 -6 15 -16 22 -23 18 -6 -4 -17 1 -25 12
-12 16 -15 17 -24 4 -9 -13 -10 -12 -5 2 3 11 -11 41 -40 80 -103 145 -157
300 -158 458 -1 142 19 172 164 243 108 53 83 59 -66 16 -60 -17 -134 -35
-164 -39 -166 -25 -320 -77 -396 -135 -31 -24 -176 -85 -201 -85 -6 0 -87 -25
-178 -55 -142 -46 -177 -54 -243 -54 -102 -1 -259 -44 -394 -109 -56 -28 -121
-53 -143 -57 -40 -6 -131 -32 -295 -82 -139 -42 -153 -47 -198 -72 l-42 -25 0
-423 0 -423 3375 0 3375 0 0 3375 0 3375 -245 0 -245 0 -1 -22z m-720 -3289
c-7 -4 -18 -5 -25 -2 -10 4 -10 8 -1 18 9 9 16 10 25 2 10 -8 10 -12 1 -18z
m101 -67 c0 -45 -15 -31 -25 22 -6 36 -5 38 9 27 9 -8 16 -29 16 -49z m-130
38 c0 -5 -4 -10 -10 -10 -5 0 -10 5 -10 10 0 6 5 10 10 10 6 0 10 -4 10 -10z
m177 -12 c-3 -8 -6 -5 -6 6 -1 11 2 17 5 13 3 -3 4 -12 1 -19z m-172 -18 c3
-5 -1 -10 -9 -10 -9 0 -16 5 -16 10 0 6 4 10 9 10 6 0 13 -4 16 -10z m-19 -45
c-3 -8 2 -19 12 -24 22 -12 9 -25 -17 -16 -23 7 -27 25 -9 43 16 16 21 15 14
-3z m-36 -39 c0 -3 -4 -8 -10 -11 -5 -3 -10 -1 -10 4 0 6 5 11 10 11 6 0 10
-2 10 -4z m-159 -87 l21 -21 -24 -26 c-12 -15 -24 -29 -26 -31 -5 -9 -40 37
-38 50 11 52 33 62 67 28z m132 -27 c-6 -24 -18 -28 -29 -10 -4 6 1 17 11 24
23 17 26 14 18 -14z m98 -31 c8 5 25 9 39 9 22 -1 23 -2 8 -11 -10 -5 -18 -17
-18 -25 0 -12 -4 -12 -20 -4 -13 7 -20 7 -20 1 0 -17 -28 -1 -33 19 -6 25 5
35 18 16 8 -10 16 -12 26 -5z m-192 -69 c-9 -2 -19 -12 -22 -23 -8 -31 -24
-22 -29 16 -3 28 -1 35 13 35 10 0 21 5 25 11 4 7 11 2 18 -13 10 -19 9 -23
-5 -26z m-92 2 c-3 -3 -12 -4 -19 -1 -8 3 -5 6 6 6 11 1 17 -2 13 -5z m-57
-75 c0 -5 -4 -9 -10 -9 -5 0 -10 7 -10 16 0 8 5 12 10 9 6 -3 10 -10 10 -16z
m50 -49 c0 -5 7 -10 15 -10 8 0 15 -4 15 -9 0 -12 -33 -9 -42 4 -11 14 -10 25
2 25 6 0 10 -4 10 -10z m120 -35 c0 -8 -3 -15 -7 -15 -5 0 -19 -3 -33 -7 l-25
-6 25 21 c30 25 40 27 40 7z m-87 -22 c-7 -2 -19 -2 -25 0 -7 3 -2 5 12 5 14
0 19 -2 13 -5z m-133 -114 c0 -11 -11 -11 -29 0 -7 5 -10 14 -6 20 5 9 10 9
21 0 8 -6 14 -15 14 -20z m75 -189 c3 -5 1 -10 -4 -10 -6 0 -11 5 -11 10 0 6
2 10 4 10 3 0 8 -4 11 -10z m45 -25 c0 -8 -4 -15 -10 -15 -5 0 -10 7 -10 15 0
8 5 15 10 15 6 0 10 -7 10 -15z m80 -14 c0 -13 -26 -32 -33 -24 -8 7 11 33 24
33 5 0 9 -4 9 -9z m-110 -111 c0 -5 -5 -10 -11 -10 -5 0 -7 5 -4 10 3 6 8 10
11 10 2 0 4 -4 4 -10z m169 -396 c21 -4 30 -11 27 -20 -3 -7 0 -15 7 -17 30
-11 -3 -13 -43 -3 -29 7 -46 17 -48 29 -4 19 7 21 57 11z m95 -86 c5 -9 8 -19
5 -22 -8 -9 -49 6 -43 15 3 5 -7 9 -21 9 -16 0 -24 4 -20 11 10 15 66 6 79
-13z m103 -39 c2 -20 -2 -29 -10 -26 -17 5 -22 57 -5 57 7 0 14 -13 15 -31z
m163 -133 c-1 -5 3 -12 8 -15 14 -9 25 -51 13 -51 -10 0 -41 55 -41 72 0 5 5
8 11 6 6 -2 10 -7 9 -12z m-70 -108 c0 -19 -2 -20 -10 -8 -13 19 -13 30 0 30
6 0 10 -10 10 -22z m-30 -52 c0 -3 -4 -8 -10 -11 -5 -3 -10 -1 -10 4 0 6 5 11
10 11 6 0 10 -2 10 -4z m300 -336 c0 -5 -5 -10 -11 -10 -5 0 -7 5 -4 10 3 6 8
10 11 10 2 0 4 -4 4 -10z m20 -30 c0 -5 -4 -10 -10 -10 -5 0 -10 5 -10 10 0 6
5 10 10 10 6 0 10 -4 10 -10z m17 -22 c-3 -8 -6 -5 -6 6 -1 11 2 17 5 13 3 -3
4 -12 1 -19z m-3599 -520 c14 -14 16 -42 2 -33 -14 9 -32 45 -22 45 4 0 13 -5
20 -12z"/>
<path d="M3107 6511 c-11 -4 6 -7 41 -6 33 0 58 3 55 8 -5 9 -72 8 -96 -2z"/>
<path d="M3015 6480 c-22 -11 -46 -19 -54 -20 -35 0 -191 -60 -191 -73 0 -5
-6 -7 -12 -5 -15 5 -135 -54 -164 -80 -10 -9 -36 -28 -56 -42 -21 -14 -38 -28
-38 -32 0 -5 -6 -8 -13 -8 -7 0 -26 -14 -43 -31 -16 -17 -54 -44 -84 -61 -30
-17 -59 -36 -65 -42 -5 -6 -23 -22 -40 -34 -32 -25 -159 -138 -211 -187 -17
-16 -74 -85 -127 -152 -53 -66 -100 -123 -105 -125 -14 -6 -82 -100 -82 -115
0 -7 -10 -35 -23 -61 -22 -44 -26 -92 -8 -92 5 0 11 14 15 30 3 17 12 30 20
30 10 0 5 -17 -18 -62 -29 -58 -31 -71 -32 -169 0 -58 -4 -111 -7 -117 -13
-20 -28 -117 -28 -187 -1 -93 43 -273 71 -290 18 -11 80 -143 80 -170 0 -14
-6 -28 -14 -31 -10 -4 -7 -13 13 -35 l26 -29 7 27 c4 16 5 36 2 46 -6 21 16
32 49 23 21 -5 35 -14 84 -56 7 -5 15 -10 18 -10 3 0 15 -9 27 -20 12 -11 29
-19 37 -18 18 4 28 -31 23 -83 -4 -38 -4 -38 -28 -22 -22 14 -36 62 -14 48 12
-8 2 22 -17 50 -13 18 -14 15 -9 -27 6 -48 -10 -69 -21 -28 -3 11 -10 20 -15
20 -6 0 -8 -7 -5 -15 5 -11 1 -12 -16 -6 -25 9 -87 -5 -87 -19 0 -5 8 -13 17
-19 17 -9 17 -10 0 -29 -13 -14 -15 -21 -6 -24 7 -2 12 -18 12 -36 0 -17 4
-29 9 -26 12 8 10 -63 -4 -108 -6 -22 -17 -42 -24 -45 -7 -3 -10 -11 -7 -19 7
-20 -14 -17 -26 4 -14 23 -14 -3 0 -29 5 -11 14 -17 19 -14 6 3 7 0 4 -8 -3
-8 3 -22 12 -32 13 -13 14 -19 5 -25 -9 -5 -10 -13 -3 -26 5 -11 12 -39 16
-63 9 -60 32 -100 62 -107 27 -7 45 3 28 14 -29 18 -66 152 -43 152 5 0 9 7 9
15 0 19 10 19 39 -2 24 -16 24 -16 17 10 -3 15 -4 27 -1 27 9 0 55 -103 55
-123 0 -10 5 -15 11 -12 11 7 4 76 -11 105 -18 33 -52 141 -47 146 3 3 13 -17
22 -45 9 -28 18 -51 20 -51 1 0 2 37 2 83 -1 92 9 226 17 234 5 6 54 -47 70
-76 13 -23 27 -31 59 -31 24 0 27 -3 27 -36 0 -62 39 -206 73 -269 39 -72 87
-107 177 -130 188 -48 430 -21 537 61 41 31 122 152 128 191 3 16 11 57 19 93
9 36 15 90 16 121 0 55 1 57 31 63 41 8 237 8 278 0 l31 -6 0 -70 c0 -67 -1
-68 -21 -57 -19 10 -20 9 -14 -13 4 -12 30 -73 57 -135 36 -79 55 -113 70
-116 15 -4 19 -11 14 -24 -4 -9 -4 -14 -1 -11 4 4 27 -9 51 -27 59 -45 136
-72 236 -83 187 -20 377 15 449 84 45 43 88 151 107 268 17 104 17 106 44 106
20 0 31 8 42 27 13 27 14 24 21 -65 4 -51 12 -95 17 -98 8 -5 4 -75 -8 -132
-3 -16 -1 -21 6 -17 8 5 10 -7 7 -39 -5 -60 8 -69 24 -16 7 22 15 40 19 40 4
0 10 -21 14 -47 5 -40 2 -52 -18 -82 -30 -44 -48 -89 -40 -102 10 -16 33 -10
46 14 12 21 14 27 17 46 0 5 13 11 29 14 47 10 109 63 131 113 29 64 29 166 1
194 -11 11 -20 24 -20 29 0 5 -5 11 -12 13 -9 3 -9 12 1 36 12 28 12 35 -3 51
-9 9 -16 21 -16 25 0 5 -11 17 -25 28 -28 22 -32 53 -10 94 8 16 15 25 15 20
0 -5 9 3 21 18 11 14 27 26 35 26 8 0 14 7 14 15 0 8 -4 15 -8 15 -17 0 -8 30
10 36 21 6 23 15 7 31 -8 8 -6 18 6 37 16 25 16 26 0 26 -15 0 -17 6 -12 36 4
20 15 43 26 51 17 11 20 25 21 76 1 141 8 255 19 310 13 62 9 151 -12 290 -11
72 -19 93 -42 117 -20 21 -29 41 -31 76 -4 47 -22 111 -36 129 -4 5 -8 16 -8
25 0 9 -9 25 -20 35 -11 10 -23 27 -26 39 -4 11 -38 52 -75 90 -58 57 -69 74
-69 102 0 26 -7 39 -33 58 -19 15 -43 26 -55 26 -31 0 -92 31 -92 47 0 7 6 13
13 13 18 0 -54 55 -73 55 -8 0 -14 6 -12 13 4 21 -40 51 -76 52 -25 0 -46 11
-77 38 -24 20 -82 57 -130 82 -49 25 -114 69 -147 98 -32 28 -64 52 -70 52 -6
0 -19 6 -27 14 -14 12 -136 66 -150 66 -3 0 16 -13 41 -29 25 -16 49 -35 54
-43 4 -7 -2 -5 -13 5 -11 9 -27 17 -36 17 -8 0 -23 7 -31 16 -9 8 -20 12 -26
9 -6 -3 -22 3 -37 15 -18 14 -35 19 -50 15 -13 -3 -33 0 -46 7 -12 7 -26 11
-30 10 -5 -1 -6 2 -2 8 4 6 16 5 35 -5 35 -18 41 -19 38 -3 -2 6 -61 26 -133
45 -129 33 -171 40 -148 25 6 -4 -38 -7 -98 -7 -90 0 -106 2 -92 13 25 18 4
14 -42 -8z m410 -50 c3 -6 -1 -7 -9 -4 -18 7 -21 14 -7 14 6 0 13 -4 16 -10z
m405 -575 c-8 -9 -7 -14 4 -18 8 -3 17 -3 21 1 13 13 50 7 67 -11 9 -11 22
-16 29 -12 6 5 28 -10 54 -36 48 -50 80 -76 113 -92 12 -6 25 -21 28 -34 4
-13 11 -27 18 -31 6 -4 17 -17 24 -29 10 -19 10 -23 0 -23 -7 0 -2 -8 12 -18
17 -12 25 -26 25 -47 0 -16 7 -35 15 -42 11 -9 12 -12 2 -13 -7 0 -10 -5 -7
-10 4 -6 11 -7 17 -4 6 4 9 1 6 -7 -3 -8 5 -23 17 -35 23 -21 64 -125 72 -184
2 -19 7 -42 11 -50 3 -8 7 -19 7 -25 1 -5 7 -23 13 -38 7 -16 12 -34 12 -41 0
-8 7 -29 15 -49 13 -33 39 -242 49 -402 3 -38 9 -117 15 -174 6 -58 10 -106 8
-107 -7 -7 -86 37 -115 65 -18 17 -39 31 -45 32 -7 0 -3 4 7 8 18 7 18 8 3 14
-9 3 -17 2 -17 -4 0 -6 -4 -7 -10 -4 -5 3 -10 1 -10 -4 0 -6 3 -11 8 -11 4 0
18 -9 32 -20 18 -15 20 -18 6 -13 -13 4 -17 3 -12 -5 4 -7 14 -12 23 -12 9 0
14 -3 10 -6 -10 -10 -48 7 -44 19 2 7 -9 17 -25 24 -15 7 -28 20 -28 29 0 12
-3 14 -13 6 -8 -7 -18 -6 -32 4 -10 8 -26 12 -34 9 -21 -6 -107 20 -104 32 1
5 -14 7 -33 5 -18 -2 -32 -8 -29 -12 3 -5 -3 -6 -12 -4 -10 3 -56 0 -103 -5
-49 -5 -86 -6 -88 -1 -2 5 -22 -4 -45 -21 -36 -26 -42 -28 -47 -13 -5 13 -10
10 -24 -17 l-17 -34 5 35 c5 28 4 32 -5 16 -14 -22 -23 -117 -10 -97 6 9 10
10 16 2 5 -9 10 -9 20 -1 7 6 20 8 29 4 9 -3 16 -1 16 5 0 6 5 11 11 11 5 0 7
-5 3 -11 -5 -9 2 -10 22 -5 53 12 139 19 132 11 -5 -5 -23 -10 -40 -11 -130
-13 -261 -41 -310 -65 -35 -18 -63 -50 -53 -61 3 -3 -1 -5 -8 -5 -6 0 -43 -6
-82 -13 -43 -7 -102 -9 -153 -4 -77 6 -84 8 -104 36 -23 33 -100 72 -161 84
-23 4 -36 11 -34 18 3 7 -4 23 -14 37 -10 13 -19 30 -19 37 0 7 -5 10 -10 7
-6 -4 -8 -11 -4 -16 3 -6 -2 -17 -12 -24 -16 -13 -17 -16 -4 -24 9 -7 17 -6
21 0 3 6 11 3 19 -6 12 -15 10 -16 -21 -13 -27 2 -34 7 -34 24 -1 12 -6 28
-13 36 -6 8 -10 18 -7 21 3 4 2 5 -2 2 -3 -3 -13 1 -21 7 -29 25 -106 31 -172
14 -37 -10 -64 -11 -98 -4 -63 13 -58 14 -132 -12 -36 -12 -81 -22 -100 -22
-47 2 -66 -10 -45 -28 13 -11 15 -10 9 4 -3 9 -1 16 5 16 6 0 11 -5 11 -11 0
-12 58 -8 91 6 9 3 23 0 30 -7 8 -7 25 -19 39 -26 23 -12 22 -12 -15 -6 -66
10 -150 16 -144 10 3 -4 26 -9 50 -12 24 -3 45 -7 47 -9 5 -5 -142 -21 -151
-17 -5 2 0 10 10 18 17 13 17 13 -5 14 -13 0 -21 -4 -18 -8 12 -19 -15 -30
-89 -36 -61 -5 -76 -4 -62 4 14 9 16 15 6 26 -6 8 -8 14 -3 14 5 0 4 4 -1 8
-22 15 -36 136 -35 305 0 94 3 183 6 197 4 14 8 36 9 50 1 14 6 32 9 41 4 9 6
20 5 25 -4 17 54 213 75 254 7 14 11 30 9 37 -2 6 6 19 19 28 19 14 19 16 4
11 -20 -7 -20 -7 0 16 10 13 25 27 32 31 7 5 9 14 5 20 -4 7 2 5 12 -3 10 -8
16 -10 12 -3 -4 7 1 14 14 18 16 5 18 9 9 15 -9 6 -4 13 18 24 17 9 36 16 42
16 7 0 21 10 32 23 l20 22 -15 -26 c-9 -15 -14 -29 -11 -32 7 -6 74 63 75 77
0 6 4 2 9 -9 8 -19 9 -19 9 2 1 13 4 22 9 21 13 -4 72 32 72 45 0 6 9 23 20
37 17 22 20 23 20 6 0 -19 1 -19 23 1 36 33 83 61 72 43 -8 -13 -6 -13 8 -1
13 10 24 11 48 2 20 -7 37 -7 49 -1 9 5 20 7 23 3 4 -3 13 0 22 7 9 7 18 10
22 7 3 -4 12 -2 20 4 10 9 13 8 13 0 0 -8 8 -10 20 -6 13 4 22 1 26 -9 8 -21
33 -8 29 15 -3 16 -1 18 16 9 11 -6 25 -8 31 -4 7 4 8 3 4 -4 -4 -7 -2 -12 3
-12 6 0 11 5 11 11 0 8 6 7 17 -2 11 -10 14 -10 9 -1 -11 19 8 14 32 -8 11
-11 24 -16 27 -10 3 5 13 6 23 3 9 -3 14 -3 10 1 -9 11 15 35 27 28 5 -3 16
-7 25 -8 8 -1 24 -5 34 -9 15 -7 17 -5 11 5 -6 9 -4 12 6 8 40 -15 59 -18 59
-11 0 5 16 15 35 22 19 7 35 19 35 27 0 13 2 13 16 -1 14 -13 18 -14 25 -3 5
7 12 13 16 14 26 2 63 17 63 25 0 15 22 10 36 -8 13 -17 15 -17 34 6 11 13 23
21 27 18 3 -4 12 -2 19 4 10 8 16 5 25 -9 12 -19 13 -19 34 4 12 13 26 24 31
24 5 0 15 9 22 21 10 16 16 18 26 9 16 -12 40 7 51 40 4 11 11 18 16 14 6 -4
6 -10 -1 -19z m-680 -165 c0 -5 -5 -10 -11 -10 -5 0 -7 5 -4 10 3 6 8 10 11
10 2 0 4 -4 4 -10z m-640 -145 c-7 -9 -15 -13 -17 -11 -7 7 7 26 19 26 6 0 6
-6 -2 -15z m-752 -125 c-7 -10 -14 -18 -15 -16 -6 6 9 36 18 36 5 0 4 -9 -3
-20z m-61 -282 c-3 -8 -6 -5 -6 6 -1 11 2 17 5 13 3 -3 4 -12 1 -19z m2113
-712 c0 -2 -9 -6 -20 -9 -11 -3 -18 -1 -14 4 5 9 34 13 34 5z m367 -2 c-3 -3
-12 -4 -19 -1 -8 3 -5 6 6 6 11 1 17 -2 13 -5z m-1673 -23 c4 -5 -3 -7 -14 -4
-23 6 -26 13 -6 13 8 0 17 -4 20 -9z m39 -8 c-26 -10 -12 -19 47 -32 56 -13
79 -25 67 -37 -3 -3 -14 -1 -26 5 -11 6 -32 13 -48 15 -55 8 -94 19 -100 29
-4 6 0 8 10 4 8 -3 21 1 27 9 7 8 18 14 24 13 7 0 6 -2 -1 -6z m1747 -7 c0 -9
-30 -14 -35 -6 -4 6 3 10 14 10 12 0 21 -2 21 -4z m-30 -25 c21 -5 19 -6 -15
-11 -63 -8 -285 1 -255 11 28 9 232 9 270 0z m-1440 -17 c0 -2 -7 -4 -15 -4
-8 0 -15 4 -15 10 0 5 7 7 15 4 8 -4 15 -8 15 -10z m-75 -14 c-27 -12 -35 -12
-35 0 0 6 12 10 28 9 24 0 25 -1 7 -9z m2065 -10 c0 -5 -2 -10 -4 -10 -3 0 -8
5 -11 10 -3 6 -1 10 4 10 6 0 11 -4 11 -10z m-158 -27 c-3 -16 -10 -31 -16
-35 -7 -5 -5 -12 7 -20 16 -12 16 -14 -3 -26 -19 -12 -20 -10 -20 34 0 33 5
51 18 60 9 7 18 14 18 14 1 0 -1 -12 -4 -27z m-1719 -49 c53 -8 113 -25 140
-39 27 -14 55 -25 63 -25 14 0 16 -15 15 -124 -2 -127 -56 -287 -120 -352 -69
-70 -191 -106 -361 -106 -155 0 -255 24 -317 76 -61 51 -111 204 -119 361 -5
92 -3 103 18 140 28 48 78 68 209 84 105 12 349 5 472 -15z m1417 0 c40 -14
61 -28 78 -54 23 -33 24 -41 19 -160 -5 -136 -36 -261 -78 -314 -84 -107 -370
-147 -586 -81 -141 43 -222 166 -255 389 l-12 84 28 42 c34 51 85 76 199 95
127 22 149 23 357 20 160 -2 205 -6 250 -21z m418 -232 c2 -7 -6 -12 -17 -12
-21 0 -27 11 -14 24 9 9 26 2 31 -12z m-1251 -69 c-3 -10 -5 -4 -5 12 0 17 2
24 5 18 2 -7 2 -21 0 -30z"/>
<path d="M3171 5653 c-1 -17 16 -25 25 -12 4 7 3 9 -4 5 -5 -3 -13 0 -15 6 -4
9 -6 10 -6 1z"/>
<path d="M2715 5630 c-3 -5 -2 -10 4 -10 5 0 13 5 16 10 3 6 2 10 -4 10 -5 0
-13 -4 -16 -10z"/>
<path d="M2344 5415 c-10 -8 -14 -15 -8 -15 5 0 19 7 30 15 10 8 14 15 8 15
-5 0 -19 -7 -30 -15z"/>
<path d="M4096 4511 c5 -4 25 -11 44 -14 35 -6 35 -6 10 8 -27 16 -70 21 -54
6z"/>
<path d="M4214 4461 c21 -23 26 -26 26 -11 0 5 -10 15 -22 21 -23 12 -23 12
-4 -10z"/>
<path d="M2568 4443 c6 -2 18 -2 25 0 6 3 1 5 -13 5 -14 0 -19 -2 -12 -5z"/>
<path d="M3626 4408 c-3 -13 -1 -27 4 -32 7 -7 10 1 10 22 0 37 -5 41 -14 10z"/>
<path d="M3590 4358 c0 -4 4 -8 9 -8 6 0 12 4 15 8 3 5 -1 9 -9 9 -8 0 -15 -4
-15 -9z"/>
<path d="M2225 4350 c4 -6 11 -8 16 -5 14 9 11 15 -7 15 -8 0 -12 -5 -9 -10z"/>
<path d="M2464 4205 c-57 -28 -111 -79 -95 -89 6 -4 30 11 53 33 41 38 106 64
183 74 17 2 3 5 -31 6 -46 1 -72 -5 -110 -24z"/>
<path d="M2650 4221 c-14 -5 -50 -17 -80 -26 -64 -19 -114 -55 -140 -98 -20
-32 -17 -55 3 -39 7 5 23 13 36 17 21 6 23 5 17 -11 -4 -10 -4 -15 0 -11 4 3
19 -2 33 -13 15 -10 39 -22 54 -25 15 -4 27 -13 27 -21 0 -17 10 -17 32 0 15
11 13 14 -20 25 -49 17 -112 60 -112 77 0 16 30 33 48 27 6 -3 12 0 12 5 0 5
7 13 15 16 10 4 19 -3 25 -18 7 -18 14 -23 29 -19 12 3 21 9 21 14 0 5 7 9 16
9 27 0 9 -24 -24 -32 -18 -5 -32 -15 -32 -22 0 -23 80 -88 101 -83 23 6 25 -2
3 -18 -16 -11 -16 -12 0 -18 10 -4 15 -3 11 3 -9 15 5 12 22 -5 12 -13 58 -15
71 -5 1 2 7 4 12 5 6 1 13 4 18 5 4 1 16 1 28 1 13 -1 28 8 38 23 9 15 26 26
39 26 33 0 67 11 67 21 0 5 -7 9 -15 9 -8 0 -15 5 -15 11 0 6 -7 3 -16 -5 -20
-21 -38 -21 -30 0 3 9 6 18 6 20 0 2 8 4 18 4 15 1 15 2 -2 15 -20 15 -20 15
0 17 10 0 26 1 34 0 24 -1 -59 66 -118 95 -41 20 -73 27 -131 30 -42 1 -87 -1
-101 -6z m225 -111 c22 -42 20 -45 -30 -69 -57 -27 -61 -26 -36 5 12 15 21 30
21 35 0 13 19 59 24 59 3 0 12 -13 21 -30z m-200 -30 c-3 -5 -10 -10 -16 -10
-5 0 -9 5 -9 10 0 6 7 10 16 10 8 0 12 -4 9 -10z m85 -90 c0 -5 -4 -10 -10
-10 -5 0 -10 5 -10 10 0 6 5 10 10 10 6 0 10 -4 10 -10z m30 -10 c0 -5 -2 -10
-4 -10 -3 0 -8 5 -11 10 -3 6 -1 10 4 10 6 0 11 -4 11 -10z"/>
<path d="M3111 3976 c-5 -13 -19 -26 -30 -29 -12 -3 -21 -13 -21 -22 0 -10 5
-13 12 -9 7 5 8 3 3 -6 -4 -7 -2 -16 6 -21 21 -13 32 -11 25 6 -3 8 -2 15 2
15 4 0 12 20 18 45 11 47 0 62 -15 21z"/>
<path d="M3930 4250 c-115 -13 -169 -35 -239 -97 -33 -30 -61 -61 -61 -69 0
-9 5 -12 10 -9 14 9 12 -7 -5 -50 -12 -28 -13 -40 -4 -51 9 -11 8 -14 -2 -15
-32 -3 -55 3 -66 19 -12 14 -13 14 -13 -2 0 -33 23 -96 35 -96 18 0 35 22 35
47 0 23 11 28 55 23 11 -1 25 -6 31 -11 6 -5 19 -7 28 -3 9 3 16 2 16 -4 0 -6
-6 -13 -12 -15 -9 -4 -10 -6 -1 -6 6 -1 18 6 27 14 8 8 17 11 20 6 3 -5 -1
-12 -10 -15 -9 -4 -14 -9 -11 -12 9 -9 48 16 42 27 -4 5 6 9 20 9 20 0 26 -4
21 -15 -7 -19 1 -19 21 1 11 11 26 14 48 10 25 -5 34 -3 39 10 4 11 13 14 27
11 13 -4 23 0 27 11 7 18 42 26 42 11 0 -5 4 -9 9 -9 5 0 8 8 7 18 0 10 7 18
19 18 11 1 25 2 32 3 6 1 26 13 43 27 27 23 34 25 56 15 27 -12 48 -6 38 11
-4 6 2 8 17 4 23 -7 24 -7 4 8 -11 9 -41 34 -67 57 -25 22 -58 47 -74 55 -26
14 -128 39 -189 47 -16 2 4 5 45 6 97 1 194 -31 223 -76 4 -7 20 -21 35 -32
27 -19 28 -19 40 -1 9 15 7 23 -11 43 -58 65 -188 94 -347 77z m-92 -187 c7
-12 20 -26 28 -31 9 -5 13 -11 8 -14 -12 -7 -65 9 -88 27 -27 20 -24 71 6 95
l23 18 6 -36 c3 -20 11 -47 17 -59z m49 64 c11 4 14 2 9 -5 -13 -21 -36 -13
-35 11 1 16 3 17 6 5 3 -11 10 -15 20 -11z m227 3 c25 -10 46 -22 46 -25 0
-11 -54 -54 -82 -66 -16 -6 -28 -14 -28 -18 0 -4 -10 -7 -22 -7 l-23 0 28 54
c15 30 27 61 27 68 0 18 0 18 54 -6z m-92 -40 c-2 -16 -8 -30 -13 -30 -5 0 -6
7 -4 15 3 8 7 22 10 30 8 25 12 17 7 -15z m-192 -100 c-19 -12 -30 -12 -30 -1
0 10 31 20 40 14 2 -2 -2 -8 -10 -13z m60 -6 c0 -2 -7 -4 -15 -4 -8 0 -15 4
-15 10 0 5 7 7 15 4 8 -4 15 -8 15 -10z m71 -1 c12 -14 12 -15 0 -9 -8 5 -17
3 -22 -5 -6 -10 -9 -8 -9 9 0 26 12 28 31 5z"/>
<path d="M4340 4219 c0 -5 4 -8 9 -4 5 3 12 1 15 -4 4 -5 -2 -12 -11 -14 -10
-3 -3 -5 15 -6 21 -1 31 3 30 12 -5 21 -58 37 -58 16z"/>
<path d="M4175 4020 c3 -5 8 -10 11 -10 2 0 4 5 4 10 0 6 -5 10 -11 10 -5 0
-7 -4 -4 -10z"/>
<path d="M3585 6400 c27 -12 43 -12 25 0 -8 5 -22 9 -30 9 -10 0 -8 -3 5 -9z"/>
<path d="M4410 6305 c0 -17 6 -25 17 -25 16 0 16 -1 0 -12 -13 -11 -17 -34
-18 -130 -1 -64 1 -121 5 -126 3 -6 3 -18 -1 -27 -4 -13 -2 -16 8 -13 8 3 13
14 11 24 -10 71 -8 121 5 142 12 20 12 29 3 53 -11 24 -10 33 2 47 9 9 13 24
11 32 -3 9 2 7 12 -5 15 -19 16 -19 12 2 -3 19 -45 63 -61 63 -3 0 -6 -11 -6
-25z"/>
<path d="M4488 6113 c7 -3 16 -2 19 1 4 3 -2 6 -13 5 -11 0 -14 -3 -6 -6z"/>
<path d="M4869 4293 c-23 -27 -24 -34 -22 -138 3 -114 18 -210 34 -220 5 -4 9
1 9 9 0 9 13 55 29 103 27 82 28 94 21 170 -5 46 -11 87 -15 93 -11 17 -31 11
-56 -17z"/>
<path d="M1910 4290 c0 -20 46 -48 58 -35 3 3 -1 5 -9 5 -10 1 -9 4 4 14 16
12 16 14 2 20 -9 3 -14 2 -11 -3 3 -5 -1 -12 -10 -15 -22 -9 -24 -8 -18 8 3 8
1 17 -5 21 -7 3 -11 -2 -11 -15z"/>
<path d="M1675 4279 c-18 -55 41 -379 68 -379 12 0 2 77 -17 134 -19 56 -29
163 -18 201 4 17 6 38 4 48 -5 24 -29 22 -37 -4z"/>
<path d="M1850 4252 c0 -13 -6 -22 -15 -22 -8 0 -15 -7 -15 -15 0 -8 6 -15 14
-15 15 0 33 56 22 67 -3 4 -6 -3 -6 -15z"/>
<path d="M1867 4038 c-19 -50 -19 -54 -2 -37 9 9 15 25 13 35 -5 18 -5 18 -11
2z"/>
<path d="M4763 3564 c-18 -14 -33 -30 -33 -35 0 -18 27 -9 53 19 45 47 32 58
-20 16z"/>
<path d="M5920 3286 c0 -9 7 -16 16 -16 9 0 14 5 12 12 -6 18 -28 21 -28 4z"/>
<path d="M5817 3269 c-13 -11 -17 -24 -12 -38 10 -32 33 -26 28 7 -2 21 -2 23
5 8 8 -18 9 -18 15 -2 15 39 -7 54 -36 25z"/>
<path d="M3114 3266 c-26 -19 -13 -29 20 -16 15 5 39 10 52 10 14 0 22 4 19
10 -9 15 -68 12 -91 -4z"/>
<path d="M3486 3257 c-15 -11 -10 -14 39 -23 64 -11 91 -2 61 21 -24 18 -76
19 -100 2z"/>
<path d="M2113 3252 c-9 -6 -7 -11 7 -20 17 -11 20 -10 20 8 0 21 -7 25 -27
12z"/>
<path d="M2147 3165 c3 -22 10 -44 14 -50 6 -5 7 5 3 25 -10 51 -24 72 -17 25z"/>
<path d="M2686 3119 c-47 -37 -76 -111 -60 -153 11 -28 21 -18 27 25 3 23 19
64 37 91 17 28 29 52 27 54 -2 3 -16 -5 -31 -17z"/>
<path d="M5930 3100 c0 -5 5 -10 10 -10 6 0 10 5 10 10 0 6 -4 10 -10 10 -5 0
-10 -4 -10 -10z"/>
<path d="M5489 3083 c-1 -4 -1 -15 0 -24 1 -9 -7 -19 -19 -22 -31 -8 -24 -27
11 -27 20 0 28 -4 23 -12 -5 -8 0 -9 15 -5 14 3 24 0 28 -9 8 -21 18 -17 31
11 14 30 6 55 -18 55 -9 0 -29 9 -44 21 -14 11 -27 17 -27 12z"/>
<path d="M5815 3080 c-3 -5 -1 -10 4 -10 6 0 11 5 11 10 0 6 -2 10 -4 10 -3 0
-8 -4 -11 -10z"/>
<path d="M2181 3014 c0 -11 3 -14 6 -6 3 7 2 16 -1 19 -3 4 -6 -2 -5 -13z"/>
<path d="M5650 3020 c0 -5 5 -10 11 -10 5 0 7 5 4 10 -3 6 -8 10 -11 10 -2 0
-4 -4 -4 -10z"/>
<path d="M5780 2961 c0 -9 30 -24 36 -18 2 1 -6 8 -16 15 -11 7 -20 8 -20 3z"/>
<path d="M4071 2944 c0 -11 3 -14 6 -6 3 7 2 16 -1 19 -3 4 -6 -2 -5 -13z"/>
<path d="M5482 2908 c-18 -18 -14 -28 8 -28 11 0 20 6 20 14 0 21 -15 27 -28
14z"/>
<path d="M3823 2856 c-46 -18 -85 -30 -89 -27 -3 3 -10 -2 -15 -11 -6 -10 -34
-21 -81 -29 -40 -7 -79 -17 -86 -22 -29 -23 -335 -16 -437 9 -16 4 -26 3 -22
-2 4 -4 13 -9 20 -10 7 -2 37 -10 67 -19 30 -8 98 -20 150 -25 52 -5 105 -12
118 -14 13 -3 20 -1 17 5 -4 5 4 9 17 10 66 1 112 9 133 23 13 9 33 16 45 16
11 0 20 5 20 11 0 5 4 7 10 4 7 -5 78 21 113 42 4 2 6 -1 5 -8 -6 -23 21 -20
45 7 16 16 31 25 41 21 16 -7 49 30 40 45 -8 13 -24 10 -111 -26z"/>
<path d="M4000 2870 c0 -11 2 -20 4 -20 2 0 6 9 9 20 3 11 1 20 -4 20 -5 0 -9
-9 -9 -20z"/>
<path d="M2815 2860 c-7 -12 20 -24 34 -16 5 3 21 2 35 -4 30 -11 32 -8 10 14
-17 18 -69 22 -79 6z"/>
<path d="M5475 2850 c3 -5 8 -10 11 -10 2 0 4 5 4 10 0 6 -5 10 -11 10 -5 0
-7 -4 -4 -10z"/>
<path d="M5511 2844 c0 -11 3 -14 6 -6 3 7 2 16 -1 19 -3 4 -6 -2 -5 -13z"/>
<path d="M3035 2780 c4 -6 11 -8 16 -5 14 9 11 15 -7 15 -8 0 -12 -5 -9 -10z"/>
<path d="M3786 2772 c-3 -5 1 -9 9 -9 8 0 15 4 15 9 0 4 -4 8 -9 8 -6 0 -12
-4 -15 -8z"/>
<path d="M5540 2735 c0 -8 2 -15 4 -15 2 0 6 7 10 15 3 8 1 15 -4 15 -6 0 -10
-7 -10 -15z"/>
<path d="M5345 2710 c3 -5 8 -10 11 -10 2 0 4 5 4 10 0 6 -5 10 -11 10 -5 0
-7 -4 -4 -10z"/>
<path d="M5306 2655 c-3 -8 -1 -15 4 -15 6 0 10 7 10 15 0 8 -2 15 -4 15 -2 0
-6 -7 -10 -15z"/>
<path d="M4360 2499 c0 -5 5 -7 10 -4 6 3 10 8 10 11 0 2 -4 4 -10 4 -5 0 -10
-5 -10 -11z"/>
<path d="M4240 2379 c0 -5 9 -9 20 -9 11 0 20 2 20 4 0 2 -9 6 -20 9 -11 3
-20 1 -20 -4z"/>
<path d="M5475 2350 c-11 -5 -14 -9 -7 -9 16 -1 49 -35 55 -58 4 -15 5 -14 6
5 0 12 -8 31 -18 41 -14 14 -16 21 -8 25 7 2 8 4 2 5 -5 0 -19 -4 -30 -9z"/>
<path d="M4045 2270 c-3 -5 -18 -10 -33 -11 -16 0 -21 -3 -12 -6 8 -3 17 -9
20 -13 3 -4 16 -11 29 -15 17 -5 22 -4 18 6 -2 8 -10 13 -17 11 -6 -1 -10 3
-7 10 2 7 10 12 16 11 6 -2 11 2 11 7 0 6 -4 10 -9 10 -6 0 -13 -4 -16 -10z"/>
<path d="M5555 2260 c4 -6 11 -8 16 -5 14 9 11 15 -7 15 -8 0 -12 -5 -9 -10z"/>
<path d="M5512 2248 c5 -15 28 -23 28 -10 0 5 -7 13 -16 16 -10 4 -14 1 -12
-6z"/>
<path d="M5751 2234 c0 -11 3 -14 6 -6 3 7 2 16 -1 19 -3 4 -6 -2 -5 -13z"/>
<path d="M3968 2233 c-10 -2 -18 -7 -18 -10 0 -3 8 -12 18 -19 19 -14 21 -12
-34 -29 -9 -3 -14 -11 -10 -20 4 -12 -2 -15 -32 -15 -57 1 -71 -2 -65 -16 4
-10 -5 -12 -36 -9 -38 4 -40 3 -29 -15 9 -14 14 -16 20 -7 5 9 12 6 23 -8 14
-17 16 -17 11 -2 -3 9 -1 17 4 17 6 0 10 -4 10 -9 0 -5 2 -16 5 -23 6 -15 -26
-16 -59 -3 -11 5 -26 3 -37 -3 -11 -7 -20 -8 -24 -2 -3 6 -1 10 5 10 6 0 8 5
4 12 -5 8 -12 2 -21 -17 -10 -21 -13 -23 -9 -7 3 17 0 22 -17 22 -16 0 -18 -3
-9 -12 7 -7 12 -21 12 -31 0 -15 -5 -18 -25 -13 -17 4 -25 2 -25 -7 0 -8 -6
-14 -12 -15 -49 -8 -75 -7 -87 2 -12 9 -13 7 -9 -6 4 -10 0 -19 -10 -23 -24
-10 -112 -12 -112 -3 0 5 -7 8 -15 8 -8 0 -15 -5 -15 -12 0 -6 -6 -4 -13 6
-12 16 -14 16 -26 2 -12 -15 -15 -15 -27 1 -12 16 -15 16 -23 3 -7 -12 -24
-15 -65 -13 -43 1 -56 -2 -56 -13 0 -8 7 -14 15 -14 8 0 15 -4 15 -9 0 -6 9
-8 20 -6 11 2 20 1 20 -3 0 -4 11 -8 25 -9 53 -5 60 -6 73 -16 8 -6 12 -6 12
1 0 5 9 8 20 5 11 -3 17 -9 14 -15 -8 -13 -79 -4 -98 12 -21 17 -27 10 -18
-21 6 -22 13 -24 72 -27 36 -2 68 -9 72 -15 5 -8 11 -8 16 -2 11 15 42 15 42
-1 0 -13 13 -19 34 -15 5 1 6 -6 2 -16 -5 -16 -4 -15 9 1 8 11 15 24 15 29 0
4 8 7 18 6 25 -3 72 18 73 33 0 7 4 4 9 -7 5 -11 9 -14 9 -7 1 9 6 10 20 2 16
-8 25 -5 45 15 14 14 23 25 20 25 -17 0 40 42 87 64 31 14 61 37 69 51 7 13
17 22 21 19 5 -2 16 4 26 14 27 29 57 67 55 70 -6 7 0 22 9 22 5 0 7 -5 3 -12
-5 -7 -3 -8 5 -3 9 5 10 10 2 18 -18 18 -13 31 7 16 9 -7 14 -10 10 -5 -4 4 2
17 12 29 18 19 18 43 0 32 -4 -3 -10 2 -14 10 -6 15 -8 16 -38 8z m-78 -124
c0 -5 -7 -6 -15 -3 -8 4 -15 13 -15 21 0 13 3 13 15 3 8 -7 15 -16 15 -21z"/>
<path d="M5602 2210 c0 -14 2 -19 5 -12 2 6 2 18 0 25 -3 6 -5 1 -5 -13z"/>
<path d="M5860 2160 c0 -5 5 -10 10 -10 6 0 10 5 10 10 0 6 -4 10 -10 10 -5 0
-10 -4 -10 -10z"/>
<path d="M2923 2056 c-10 -11 -9 -16 5 -21 9 -3 13 -3 9 1 -4 4 -2 13 4 21 15
17 -2 16 -18 -1z"/>
<path d="M2963 2055 c0 -8 6 -16 14 -19 7 -3 13 -2 13 3 0 5 -6 14 -13 20 -10
8 -14 7 -14 -4z"/>
<path d="M3000 2030 c0 -5 -15 -11 -32 -11 l-33 -2 30 -4 c17 -2 37 -7 45 -10
8 -3 19 -7 24 -7 5 -1 11 -6 13 -12 2 -7 -8 -9 -27 -6 -18 3 -30 0 -30 -7 0
-6 3 -10 8 -9 4 0 15 -2 25 -6 21 -10 51 0 42 14 -3 5 1 10 11 10 14 0 14 3 4
15 -7 9 -15 13 -17 11 -3 -3 -14 4 -26 15 -23 21 -37 24 -37 9z"/>
<path d="M3361 2004 c0 -11 3 -14 6 -6 3 7 2 16 -1 19 -3 4 -6 -2 -5 -13z"/>
<path d="M3471 2004 c0 -11 3 -14 6 -6 3 7 2 16 -1 19 -3 4 -6 -2 -5 -13z"/>
<path d="M5836 2003 c-6 -14 -5 -15 5 -6 7 7 10 15 7 18 -3 3 -9 -2 -12 -12z"/>
<path d="M2928 1993 c7 -3 16 -2 19 1 4 3 -2 6 -13 5 -11 0 -14 -3 -6 -6z"/>
<path d="M3094 1979 c-16 -18 -16 -19 2 -20 10 -1 23 -1 28 0 5 1 6 -8 3 -21
-6 -22 -5 -22 8 -4 20 26 19 39 -4 53 -16 10 -22 8 -37 -8z"/>
<path d="M5840 1970 c0 -5 5 -10 11 -10 5 0 7 5 4 10 -3 6 -8 10 -11 10 -2 0
-4 -4 -4 -10z"/>
<path d="M3086 1935 c-3 -9 0 -15 8 -15 7 0 13 7 13 15 0 8 -4 15 -8 15 -4 0
-9 -7 -13 -15z"/>
<path d="M3740 1921 c0 -10 19 -25 25 -20 1 2 -3 10 -11 17 -8 7 -14 8 -14 3z"/>
<path d="M3206 1884 c-8 -21 -8 -24 3 -24 5 0 11 9 14 20 6 24 -8 27 -17 4z"/>
<path d="M3237 1873 c-4 -3 -7 -11 -7 -17 0 -6 5 -5 12 2 6 6 9 14 7 17 -3 3
-9 2 -12 -2z"/>
<path d="M3685 1840 c-3 -5 -13 -6 -23 -3 -9 3 -14 3 -10 -2 4 -4 3 -14 -4
-22 -23 -28 2 -24 31 6 17 17 26 31 21 31 -5 0 -11 -4 -15 -10z"/>
<path d="M5870 1810 c0 -21 5 -30 17 -30 9 0 13 3 10 7 -4 3 -2 12 4 19 13 16
4 34 -17 34 -9 0 -14 -11 -14 -30z"/>
<path d="M3575 1810 c-3 -5 1 -10 9 -10 9 0 16 5 16 10 0 6 -4 10 -9 10 -6 0
-13 -4 -16 -10z"/>
<path d="M4595 1700 c-3 -5 -1 -10 4 -10 6 0 11 5 11 10 0 6 -2 10 -4 10 -3 0
-8 -4 -11 -10z"/>
<path d="M2461 1684 c0 -11 3 -14 6 -6 3 7 2 16 -1 19 -3 4 -6 -2 -5 -13z"/>
<path d="M4626 1671 c-4 -7 -5 -15 -2 -18 9 -9 19 4 14 18 -4 11 -6 11 -12 0z"/>
<path d="M5950 1670 c0 -5 5 -10 10 -10 6 0 10 5 10 10 0 6 -4 10 -10 10 -5 0
-10 -4 -10 -10z"/>
<path d="M4650 1620 c0 -11 5 -20 10 -20 6 0 10 9 10 20 0 11 -4 20 -10 20 -5
0 -10 -9 -10 -20z"/>
<path d="M4673 1585 c-17 -19 -16 -25 2 -25 8 0 15 9 15 20 0 23 -1 24 -17 5z"/>
<path d="M4691 1533 c-7 -8 -10 -17 -7 -20 9 -9 29 13 25 25 -2 6 -10 3 -18
-5z"/>
<path d="M4690 1470 c0 -5 5 -10 11 -10 5 0 7 5 4 10 -3 6 -8 10 -11 10 -2 0
-4 -4 -4 -10z"/>
<path d="M4715 1330 c3 -5 8 -10 11 -10 2 0 4 5 4 10 0 6 -5 10 -11 10 -5 0
-7 -4 -4 -10z"/>
<path d="M4885 971 c-3 -6 -11 -9 -16 -6 -5 4 -9 1 -9 -4 0 -6 5 -11 11 -11 6
0 9 -7 5 -15 -3 -8 -3 -15 0 -15 7 0 25 52 20 57 -2 2 -7 -1 -11 -6z"/>
<path d="M4821 870 c-13 -25 -16 -39 -9 -37 17 3 38 23 38 36 0 6 5 11 10 11
6 0 10 7 10 15 0 29 -28 15 -49 -25z"/>
<path d="M2605 540 c-3 -5 -2 -10 4 -10 5 0 18 -3 28 -7 16 -6 16 -5 4 10 -15
19 -27 22 -36 7z"/>
</g>
</svg>
